<svg xmlns="http://www.w3.org/2000/svg" xmlns:xlink="http://www.w3.org/1999/xlink" xml:space="preserve" version="1.1" style="shape-rendering:geometricPrecision;text-rendering:geometricPrecision;image-rendering:optimizeQuality;" viewBox="0 0 319 182.5" x="0px" y="0px" fill-rule="evenodd" clip-rule="evenodd"><defs><style type="text/css">
   
    .fil0 {fill:black}
   
  </style></defs><g><g><path class="fil0" d="M306 12l-60 10 60 -10zm-191 15l107 -16 -107 16zm24 24l172 -31c0,0 1,1 1,2l0 13c0,9 -7,14 -16,16l-130 36c-6,1 -14,10 -20,20l1 -28c0,0 -1,0 -1,0l-25 4 0 1c2,-16 7,-32 18,-33zm-131 7c1,0 2,1 2,2l0 20c0,1 -1,2 -2,2 -13,0 -8,-22 -3,-23 1,-4 4,-9 8,-10l6 -2 0 -6c0,-4 7,-6 10,-6 3,-1 6,-1 9,-2l5 -8c1,-2 2,-4 4,-4 37,-7 74,-13 110,-19 1,0 1,0 1,0 15,1 31,1 45,3l23 -4 2 0 1 -1 2 0 2 0c4,0 9,0 13,0 7,1 14,1 20,1 7,1 14,1 21,2 4,1 9,1 13,2 5,1 13,3 18,6 1,1 1,2 1,3l0 1c0,21 0,43 0,65 0,5 -1,8 -6,9l-16 4c0,6 -4,15 -12,13l-9 -1c-2,0 -3,-1 -5,-4l0 0 -100 29c-1,6 -5,15 -12,13l-9 -1c-3,0 -5,-1 -6,-4l-25 7c-1,0 -2,1 -3,1 -1,0 -1,0 -2,0 -30,-4 -59,-8 -88,-11 -7,-1 -7,-4 -7,-10 0,-25 0,-50 0,-75 -2,0 -3,1 -5,1 -3,1 -5,5 -6,7zm106 -30l70 -11 13 -2c1,0 2,0 4,-1 8,-1 24,-2 25,-1l-95 14c-7,1 -13,2 -17,1zm4 27c-1,0 0,-6 0,-7 0,-2 -2,-9 -10,-10 0,-2 0,-8 -20,-12 23,1 23,7 23,10 7,-1 9,4 10,6l18 -3c45,-7 80,-13 107,-17l9 -1c111,-16 47,-5 -127,24 -2,1 -9,6 -10,10zm2 88c0,0 0,-1 0,-1l0 0 25 -7 0 0c0,0 0,0 0,-1l1 -27 -1 1 0 0 0 0 0 0 0 0 0 0 0 0 0 0 0 0 0 0 0 0 0 0 0 0 0 0c-4,7 -8,14 -10,19 -3,5 -11,8 -14,6l0 8 23 -7 1 -26 0 0 0 -28 -24 4c-1,7 -1,14 -1,19 0,13 0,26 0,39l0 0c0,0 0,0 0,0 0,0 0,0 0,0 0,0 0,1 0,1zm-72 -104c15,1 29,2 44,3 0,2 0,4 0,6 -15,-1 -29,-2 -44,-4 0,-1 0,-3 0,-5zm-25 11c0,13 0,27 0,41 0,23 88,32 88,9l0 -37c-2,0 -4,1 -5,1 -3,1 -5,5 -6,7 1,0 1,0 1,1l0 21c0,1 0,1 -1,1 -13,0 -8,-22 -3,-23 1,-3 4,-9 7,-9l7 -2 0 -3c0,-7 -88,-14 -88,-7zm21 76c0,4 -21,0 -21,-4 0,-3 0,-5 0,-7 0,-4 21,3 21,11zm44 5c0,5 23,6 23,2 0,-3 0,-5 0,-7 0,-5 -23,-3 -23,5zm136 -58l19 -6 0 40 -18 6 -1 -40zm-1 -1l21 -6 0 42 33 -10c1,-7 3,-20 14,-18 6,1 8,8 7,12l15 -5c4,0 5,-2 5,-7 0,-22 0,-44 0,-65 0,-2 0,-2 -1,-3 -4,-3 -12,-5 -18,-6 -9,-2 -56,-5 -66,-5l-2 0 -1 1 -2 0 -2 0 -23 4c-13,-2 -31,-2 -45,-3 0,0 0,0 -1,0l-110 19c-1,0 -2,2 -3,4l-5 8c-3,1 -6,1 -9,2 -6,1 -10,2 -10,5 0,28 0,55 0,84 0,8 2,8 6,9 29,3 59,7 88,11 1,0 1,0 2,0 1,0 2,-1 2,-1l33 -9c0,-10 4,-20 13,-18 6,1 8,7 7,12l53 -16 -1 -41zm-58 59c1,-4 0,-8 -3,-8 -2,0 -4,2 -5,7 -1,2 -1,7 3,8 3,0 5,-4 5,-7zm124 -45c-4,-1 -6,7 -6,10 0,2 1,4 3,5 6,1 9,-14 3,-15z"/></g></g><text x="0" y="161" fill="#000000" font-size="5px" font-weight="bold" font-family="'Helvetica Neue', Helvetica, Arial-Unicode, Arial, Sans-serif">Created by Briyan Design</text><text x="0" y="166" fill="#000000" font-size="5px" font-weight="bold" font-family="'Helvetica Neue', Helvetica, Arial-Unicode, Arial, Sans-serif">from the Noun Project</text></svg>